<?xml version="1.0" encoding="utf-8" standalone="no"?>
<!DOCTYPE svg PUBLIC "-//W3C//DTD SVG 1.1//EN"
  "http://www.w3.org/Graphics/SVG/1.1/DTD/svg11.dtd">
<svg xmlns:xlink="http://www.w3.org/1999/xlink" width="201.51pt" height="309.265312pt" viewBox="0 0 201.51 309.265312" xmlns="http://www.w3.org/2000/svg" version="1.1">
 <metadata>
  <rdf:RDF xmlns:dc="http://purl.org/dc/elements/1.1/" xmlns:cc="http://creativecommons.org/ns#" xmlns:rdf="http://www.w3.org/1999/02/22-rdf-syntax-ns#">
   <cc:Work>
    <dc:type rdf:resource="http://purl.org/dc/dcmitype/StillImage"/>
    <dc:date>2026-03-09T23:13:00.648169</dc:date>
    <dc:format>image/svg+xml</dc:format>
    <dc:creator>
     <cc:Agent>
      <dc:title>Matplotlib v3.10.8, https://matplotlib.org/</dc:title>
     </cc:Agent>
    </dc:creator>
   </cc:Work>
  </rdf:RDF>
 </metadata>
 <defs>
  <style type="text/css">*{stroke-linejoin: round; stroke-linecap: butt}</style>
 </defs>
 <g id="figure_1">
  <g id="patch_1">
   <path d="M 0 309.265312 
L 201.51 309.265312 
L 201.51 0 
L 0 0 
z
" style="fill: #ffffff"/>
  </g>
  <g id="axes_1">
   <g id="patch_2">
    <path d="M 53.142187 108.272812 
L 190.133438 108.272812 
L 190.133438 78.201562 
L 53.142187 78.201562 
z
" clip-path="url(#p7a45490121)" style="fill: #f5f5f5; stroke: #bbbbbb; stroke-width: 0.4; stroke-linejoin: miter"/>
   </g>
   <g id="patch_3">
    <path d="M 53.142187 138.344062 
L 190.133438 138.344062 
L 190.133438 108.272812 
L 53.142187 108.272812 
z
" clip-path="url(#p7a45490121)" style="fill: #ebebeb; stroke: #bbbbbb; stroke-width: 0.4; stroke-linejoin: miter"/>
   </g>
   <g id="patch_4">
    <path d="M 53.142187 168.415312 
L 190.133438 168.415312 
L 190.133438 138.344062 
L 53.142187 138.344062 
z
" clip-path="url(#p7a45490121)" style="fill: #f5f5f5; stroke: #bbbbbb; stroke-width: 0.4; stroke-linejoin: miter"/>
   </g>
   <g id="patch_5">
    <path d="M 53.142187 198.486562 
L 190.133438 198.486562 
L 190.133438 168.415312 
L 53.142187 168.415312 
z
" clip-path="url(#p7a45490121)" style="fill: #ebebeb; stroke: #bbbbbb; stroke-width: 0.4; stroke-linejoin: miter"/>
   </g>
   <g id="patch_6">
    <path d="M 53.142187 228.557812 
L 190.133438 228.557812 
L 190.133438 198.486562 
L 53.142187 198.486562 
z
" clip-path="url(#p7a45490121)" style="fill: #f5f5f5; stroke: #bbbbbb; stroke-width: 0.4; stroke-linejoin: miter"/>
   </g>
   <g id="patch_7">
    <path d="M 53.142187 271.994062 
L 190.133438 271.994062 
L 190.133438 228.557812 
L 53.142187 228.557812 
z
" clip-path="url(#p7a45490121)" style="fill: #ebebeb; stroke: #bbbbbb; stroke-width: 0.4; stroke-linejoin: miter"/>
   </g>
   <g id="line2d_1">
    <path d="M 79.872187 93.237187 
L 79.872187 262.387969 
" clip-path="url(#p7a45490121)" style="fill: none; stroke: #000000; stroke-width: 0.6; stroke-linecap: round"/>
   </g>
   <g id="line2d_2">
    <path d="M 121.637813 93.237187 
L 121.637813 250.275937 
" clip-path="url(#p7a45490121)" style="fill: none; stroke-dasharray: 2.22,0.96; stroke-dashoffset: 0; stroke: #000000; stroke-width: 0.6; stroke-linecap: round"/>
   </g>
   <g id="line2d_3">
    <path d="M 163.403437 93.237187 
L 163.403437 250.275937 
" clip-path="url(#p7a45490121)" style="fill: none; stroke-dasharray: 3.84,0.96,0.6,0.96; stroke-dashoffset: 0; stroke: #000000; stroke-width: 0.6; stroke-linecap: round"/>
   </g>
   <g id="line2d_4">
    <path d="M 79.872187 250.275937 
L 79.872187 278.676562 
" clip-path="url(#p7a45490121)" style="fill: none; stroke: #000000; stroke-width: 0.6; stroke-linecap: round"/>
   </g>
   <g id="line2d_5">
    <path d="M 121.637813 250.275937 
L 121.637813 278.676562 
" clip-path="url(#p7a45490121)" style="fill: none; stroke: #000000; stroke-width: 0.6; stroke-linecap: round"/>
   </g>
   <g id="line2d_6">
    <path d="M 163.403437 250.275937 
L 163.403437 278.676562 
" clip-path="url(#p7a45490121)" style="fill: none; stroke: #000000; stroke-width: 0.6; stroke-linecap: round"/>
   </g>
   <g id="line2d_7">
    <defs>
     <path id="m068c369c25" d="M 0 0.75 
C 0.198902 0.75 0.389685 0.670975 0.53033 0.53033 
C 0.670975 0.389685 0.75 0.198902 0.75 0 
C 0.75 -0.198902 0.670975 -0.389685 0.53033 -0.53033 
C 0.389685 -0.670975 0.198902 -0.75 0 -0.75 
C -0.198902 -0.75 -0.389685 -0.670975 -0.53033 -0.53033 
C -0.670975 -0.389685 -0.75 -0.198902 -0.75 0 
C -0.75 0.198902 -0.670975 0.389685 -0.53033 0.53033 
C -0.389685 0.670975 -0.198902 0.75 0 0.75 
z
" style="stroke: #000000"/>
    </defs>
    <g clip-path="url(#p7a45490121)">
     <use xlink:href="#m068c369c25" x="79.872187" y="93.237187" style="stroke: #000000"/>
    </g>
   </g>
   <g id="line2d_8">
    <g clip-path="url(#p7a45490121)">
     <use xlink:href="#m068c369c25" x="79.872187" y="123.308437" style="stroke: #000000"/>
    </g>
   </g>
   <g id="line2d_9">
    <g clip-path="url(#p7a45490121)">
     <use xlink:href="#m068c369c25" x="79.872187" y="153.379687" style="stroke: #000000"/>
    </g>
   </g>
   <g id="line2d_10">
    <g clip-path="url(#p7a45490121)">
     <use xlink:href="#m068c369c25" x="79.872187" y="183.450937" style="stroke: #000000"/>
    </g>
   </g>
   <g id="line2d_11">
    <g clip-path="url(#p7a45490121)">
     <use xlink:href="#m068c369c25" x="79.872187" y="213.522187" style="stroke: #000000"/>
    </g>
   </g>
   <g id="line2d_12">
    <g clip-path="url(#p7a45490121)">
     <use xlink:href="#m068c369c25" x="79.872187" y="250.275937" style="stroke: #000000"/>
    </g>
   </g>
   <g id="line2d_13">
    <g clip-path="url(#p7a45490121)">
     <use xlink:href="#m068c369c25" x="121.637813" y="93.237187" style="stroke: #000000"/>
    </g>
   </g>
   <g id="line2d_14">
    <g clip-path="url(#p7a45490121)">
     <use xlink:href="#m068c369c25" x="121.637813" y="123.308437" style="stroke: #000000"/>
    </g>
   </g>
   <g id="line2d_15">
    <g clip-path="url(#p7a45490121)">
     <use xlink:href="#m068c369c25" x="121.637813" y="153.379687" style="stroke: #000000"/>
    </g>
   </g>
   <g id="line2d_16">
    <g clip-path="url(#p7a45490121)">
     <use xlink:href="#m068c369c25" x="121.637813" y="183.450937" style="stroke: #000000"/>
    </g>
   </g>
   <g id="line2d_17">
    <g clip-path="url(#p7a45490121)">
     <use xlink:href="#m068c369c25" x="121.637813" y="213.522187" style="stroke: #000000"/>
    </g>
   </g>
   <g id="line2d_18">
    <g clip-path="url(#p7a45490121)">
     <use xlink:href="#m068c369c25" x="121.637813" y="250.275937" style="stroke: #000000"/>
    </g>
   </g>
   <g id="line2d_19">
    <g clip-path="url(#p7a45490121)">
     <use xlink:href="#m068c369c25" x="163.403437" y="93.237187" style="stroke: #000000"/>
    </g>
   </g>
   <g id="line2d_20">
    <g clip-path="url(#p7a45490121)">
     <use xlink:href="#m068c369c25" x="163.403437" y="123.308437" style="stroke: #000000"/>
    </g>
   </g>
   <g id="line2d_21">
    <g clip-path="url(#p7a45490121)">
     <use xlink:href="#m068c369c25" x="163.403437" y="153.379687" style="stroke: #000000"/>
    </g>
   </g>
   <g id="line2d_22">
    <g clip-path="url(#p7a45490121)">
     <use xlink:href="#m068c369c25" x="163.403437" y="183.450937" style="stroke: #000000"/>
    </g>
   </g>
   <g id="line2d_23">
    <g clip-path="url(#p7a45490121)">
     <use xlink:href="#m068c369c25" x="163.403437" y="213.522187" style="stroke: #000000"/>
    </g>
   </g>
   <g id="line2d_24">
    <g clip-path="url(#p7a45490121)">
     <use xlink:href="#m068c369c25" x="163.403437" y="250.275937" style="stroke: #000000"/>
    </g>
   </g>
   <g id="text_1">
    <!-- RT -->
    <g style="fill: #333333" transform="translate(39.983437 95.16875) scale(0.07 -0.07)">
     <defs>
      <path id="DejaVuSerif-52" d="M 3066 2316 
Q 3284 2256 3442 2114 
Q 3600 1972 3725 1716 
L 4403 331 
L 4972 331 
L 4972 0 
L 3872 0 
L 3144 1484 
Q 2934 1916 2759 2042 
Q 2584 2169 2278 2169 
L 1581 2169 
L 1581 331 
L 2241 331 
L 2241 0 
L 353 0 
L 353 331 
L 947 331 
L 947 4331 
L 353 4331 
L 353 4666 
L 2719 4666 
Q 3400 4666 3770 4341 
Q 4141 4016 4141 3419 
Q 4141 2938 3870 2661 
Q 3600 2384 3066 2316 
z
M 1581 2503 
L 2503 2503 
Q 2975 2503 3200 2726 
Q 3425 2950 3425 3419 
Q 3425 3888 3200 4109 
Q 2975 4331 2503 4331 
L 1581 4331 
L 1581 2503 
z
" transform="scale(0.015625)"/>
      <path id="DejaVuSerif-54" d="M 1222 0 
L 1222 331 
L 1819 331 
L 1819 4294 
L 447 4294 
L 447 3566 
L 63 3566 
L 63 4666 
L 4206 4666 
L 4206 3566 
L 3822 3566 
L 3822 4294 
L 2450 4294 
L 2450 331 
L 3047 331 
L 3047 0 
L 1222 0 
z
" transform="scale(0.015625)"/>
     </defs>
     <use xlink:href="#DejaVuSerif-52"/>
     <use xlink:href="#DejaVuSerif-54" transform="translate(73.542969 0)"/>
    </g>
   </g>
   <g id="text_2">
    <!-- 50K -->
    <g style="fill: #333333" transform="translate(35.664219 125.24) scale(0.07 -0.07)">
     <defs>
      <path id="DejaVuSerif-35" d="M 3219 4666 
L 3219 4153 
L 1081 4153 
L 1081 2816 
Q 1244 2928 1461 2984 
Q 1678 3041 1947 3041 
Q 2703 3041 3140 2622 
Q 3578 2203 3578 1478 
Q 3578 738 3136 323 
Q 2694 -91 1894 -91 
Q 1572 -91 1234 -12 
Q 897 66 544 225 
L 544 1131 
L 897 1131 
Q 925 688 1179 453 
Q 1434 219 1894 219 
Q 2388 219 2653 544 
Q 2919 869 2919 1478 
Q 2919 2084 2655 2407 
Q 2391 2731 1894 2731 
Q 1613 2731 1398 2631 
Q 1184 2531 1019 2322 
L 750 2322 
L 750 4666 
L 3219 4666 
z
" transform="scale(0.015625)"/>
      <path id="DejaVuSerif-30" d="M 2034 219 
Q 2513 219 2750 744 
Q 2988 1269 2988 2328 
Q 2988 3391 2750 3916 
Q 2513 4441 2034 4441 
Q 1556 4441 1318 3916 
Q 1081 3391 1081 2328 
Q 1081 1269 1318 744 
Q 1556 219 2034 219 
z
M 2034 -91 
Q 1275 -91 848 546 
Q 422 1184 422 2328 
Q 422 3475 848 4112 
Q 1275 4750 2034 4750 
Q 2797 4750 3222 4112 
Q 3647 3475 3647 2328 
Q 3647 1184 3222 546 
Q 2797 -91 2034 -91 
z
" transform="scale(0.015625)"/>
      <path id="DejaVuSerif-4b" d="M 353 0 
L 353 331 
L 947 331 
L 947 4331 
L 353 4331 
L 353 4666 
L 2175 4666 
L 2175 4331 
L 1581 4331 
L 1581 2566 
L 3591 4331 
L 3084 4331 
L 3084 4666 
L 4634 4666 
L 4634 4331 
L 4109 4331 
L 2106 2572 
L 4347 331 
L 4878 331 
L 4878 0 
L 3794 0 
L 1581 2216 
L 1581 331 
L 2175 331 
L 2175 0 
L 353 0 
z
" transform="scale(0.015625)"/>
     </defs>
     <use xlink:href="#DejaVuSerif-35"/>
     <use xlink:href="#DejaVuSerif-30" transform="translate(63.623047 0)"/>
     <use xlink:href="#DejaVuSerif-4b" transform="translate(127.246094 0)"/>
    </g>
   </g>
   <g id="text_3">
    <!-- 4K -->
    <g style="fill: #333333" transform="translate(40.117969 155.31125) scale(0.07 -0.07)">
     <defs>
      <path id="DejaVuSerif-34" d="M 2234 1581 
L 2234 4063 
L 641 1581 
L 2234 1581 
z
M 3609 0 
L 1484 0 
L 1484 331 
L 2234 331 
L 2234 1247 
L 197 1247 
L 197 1588 
L 2241 4750 
L 2859 4750 
L 2859 1581 
L 3750 1581 
L 3750 1247 
L 2859 1247 
L 2859 331 
L 3609 331 
L 3609 0 
z
" transform="scale(0.015625)"/>
     </defs>
     <use xlink:href="#DejaVuSerif-34"/>
     <use xlink:href="#DejaVuSerif-4b" transform="translate(63.623047 0)"/>
    </g>
   </g>
   <g id="text_4">
    <!-- Still -->
    <g style="fill: #333333" transform="translate(35.476094 185.3825) scale(0.07 -0.07)">
     <defs>
      <path id="DejaVuSerif-53" d="M 594 225 
L 594 1288 
L 953 1284 
Q 969 753 1261 498 
Q 1553 244 2150 244 
Q 2706 244 2998 464 
Q 3291 684 3291 1106 
Q 3291 1444 3114 1625 
Q 2938 1806 2369 1978 
L 1753 2163 
Q 1084 2366 811 2669 
Q 538 2972 538 3500 
Q 538 4094 959 4422 
Q 1381 4750 2144 4750 
Q 2469 4750 2856 4679 
Q 3244 4609 3681 4475 
L 3681 3481 
L 3328 3481 
Q 3275 3975 2998 4195 
Q 2722 4416 2156 4416 
Q 1663 4416 1405 4214 
Q 1147 4013 1147 3628 
Q 1147 3294 1340 3103 
Q 1534 2913 2163 2725 
L 2741 2553 
Q 3375 2363 3645 2067 
Q 3916 1772 3916 1275 
Q 3916 597 3481 253 
Q 3047 -91 2188 -91 
Q 1803 -91 1404 -12 
Q 1006 66 594 225 
z
" transform="scale(0.015625)"/>
      <path id="DejaVuSerif-74" d="M 691 2988 
L 184 2988 
L 184 3322 
L 691 3322 
L 691 4353 
L 1269 4353 
L 1269 3322 
L 2350 3322 
L 2350 2988 
L 1269 2988 
L 1269 878 
Q 1269 456 1350 337 
Q 1431 219 1650 219 
Q 1875 219 1978 351 
Q 2081 484 2088 781 
L 2522 781 
Q 2497 328 2275 118 
Q 2053 -91 1600 -91 
Q 1103 -91 897 129 
Q 691 350 691 878 
L 691 2988 
z
" transform="scale(0.015625)"/>
      <path id="DejaVuSerif-69" d="M 622 4353 
Q 622 4497 726 4603 
Q 831 4709 978 4709 
Q 1122 4709 1226 4603 
Q 1331 4497 1331 4353 
Q 1331 4206 1228 4103 
Q 1125 4000 978 4000 
Q 831 4000 726 4103 
Q 622 4206 622 4353 
z
M 1356 331 
L 1900 331 
L 1900 0 
L 231 0 
L 231 331 
L 781 331 
L 781 2988 
L 231 2988 
L 231 3322 
L 1356 3322 
L 1356 331 
z
" transform="scale(0.015625)"/>
      <path id="DejaVuSerif-6c" d="M 1313 331 
L 1856 331 
L 1856 0 
L 184 0 
L 184 331 
L 738 331 
L 738 4531 
L 184 4531 
L 184 4863 
L 1313 4863 
L 1313 331 
z
" transform="scale(0.015625)"/>
     </defs>
     <use xlink:href="#DejaVuSerif-53"/>
     <use xlink:href="#DejaVuSerif-74" transform="translate(68.505859 0)"/>
     <use xlink:href="#DejaVuSerif-69" transform="translate(108.691406 0)"/>
     <use xlink:href="#DejaVuSerif-6c" transform="translate(140.673828 0)"/>
     <use xlink:href="#DejaVuSerif-6c" transform="translate(172.65625 0)"/>
    </g>
   </g>
   <g id="text_5">
    <!-- CP -->
    <g style="fill: #333333" transform="translate(39.735156 215.45375) scale(0.07 -0.07)">
     <defs>
      <path id="DejaVuSerif-43" d="M 4513 1234 
Q 4306 581 3820 245 
Q 3334 -91 2591 -91 
Q 2134 -91 1743 65 
Q 1353 222 1050 525 
Q 700 875 529 1320 
Q 359 1766 359 2328 
Q 359 3416 987 4083 
Q 1616 4750 2644 4750 
Q 3025 4750 3456 4650 
Q 3888 4550 4384 4347 
L 4384 3272 
L 4031 3272 
Q 3916 3859 3567 4137 
Q 3219 4416 2591 4416 
Q 1844 4416 1459 3886 
Q 1075 3356 1075 2328 
Q 1075 1303 1459 773 
Q 1844 244 2591 244 
Q 3113 244 3450 492 
Q 3788 741 3938 1234 
L 4513 1234 
z
" transform="scale(0.015625)"/>
      <path id="DejaVuSerif-50" d="M 1581 2375 
L 2406 2375 
Q 2872 2375 3115 2626 
Q 3359 2878 3359 3353 
Q 3359 3831 3115 4081 
Q 2872 4331 2406 4331 
L 1581 4331 
L 1581 2375 
z
M 353 0 
L 353 331 
L 947 331 
L 947 4331 
L 353 4331 
L 353 4666 
L 2559 4666 
Q 3259 4666 3668 4311 
Q 4078 3956 4078 3353 
Q 4078 2753 3668 2397 
Q 3259 2041 2559 2041 
L 1581 2041 
L 1581 331 
L 2303 331 
L 2303 0 
L 353 0 
z
" transform="scale(0.015625)"/>
     </defs>
     <use xlink:href="#DejaVuSerif-43"/>
     <use xlink:href="#DejaVuSerif-50" transform="translate(76.513672 0)"/>
    </g>
   </g>
   <g id="text_6">
    <!-- MXC -->
    <g style="fill: #333333" transform="translate(32.416875 252.2075) scale(0.07 -0.07)">
     <defs>
      <path id="DejaVuSerif-4d" d="M 353 0 
L 353 331 
L 947 331 
L 947 4331 
L 319 4331 
L 319 4666 
L 1678 4666 
L 3316 1344 
L 4953 4666 
L 6228 4666 
L 6228 4331 
L 5606 4331 
L 5606 331 
L 6203 331 
L 6203 0 
L 4378 0 
L 4378 331 
L 4972 331 
L 4972 3938 
L 3372 684 
L 2931 684 
L 1331 3938 
L 1331 331 
L 1925 331 
L 1925 0 
L 353 0 
z
" transform="scale(0.015625)"/>
      <path id="DejaVuSerif-58" d="M 2119 1997 
L 978 331 
L 1581 331 
L 1581 0 
L 38 0 
L 38 331 
L 575 331 
L 1919 2291 
L 556 4331 
L 56 4331 
L 56 4666 
L 1906 4666 
L 1906 4331 
L 1356 4331 
L 2356 2828 
L 3384 4331 
L 2784 4331 
L 2784 4666 
L 4313 4666 
L 4313 4331 
L 3788 4331 
L 2553 2534 
L 4025 331 
L 4525 331 
L 4525 0 
L 2675 0 
L 2675 331 
L 3231 331 
L 2119 1997 
z
" transform="scale(0.015625)"/>
     </defs>
     <use xlink:href="#DejaVuSerif-4d"/>
     <use xlink:href="#DejaVuSerif-58" transform="translate(102.392578 0)"/>
     <use xlink:href="#DejaVuSerif-43" transform="translate(171.833984 0)"/>
    </g>
   </g>
   <g id="text_7">
    <!-- C00 -->
    <g transform="translate(74.268633 71.107895) scale(0.055 -0.055)">
     <use xlink:href="#DejaVuSerif-43"/>
     <use xlink:href="#DejaVuSerif-30" transform="translate(76.513672 0)"/>
     <use xlink:href="#DejaVuSerif-30" transform="translate(140.136719 0)"/>
    </g>
    <!-- (Q00) -->
    <g transform="translate(71.972383 77.057734) scale(0.055 -0.055)">
     <defs>
      <path id="DejaVuSerif-28" d="M 2041 -997 
Q 1281 -656 893 83 
Q 506 822 506 1931 
Q 506 3044 893 3783 
Q 1281 4522 2041 4863 
L 2041 4556 
Q 1559 4225 1350 3623 
Q 1141 3022 1141 1931 
Q 1141 844 1350 242 
Q 1559 -359 2041 -691 
L 2041 -997 
z
" transform="scale(0.015625)"/>
      <path id="DejaVuSerif-51" d="M 2700 -91 
Q 1628 -91 993 567 
Q 359 1225 359 2328 
Q 359 2894 529 3339 
Q 700 3784 1050 4134 
Q 1356 4441 1750 4595 
Q 2144 4750 2625 4750 
Q 3641 4750 4266 4084 
Q 4891 3419 4891 2328 
Q 4891 1403 4422 773 
Q 3953 144 3128 -38 
Q 3297 -247 3539 -347 
Q 3781 -447 4122 -447 
L 4219 -447 
L 4219 -1025 
Q 3691 -1000 3314 -767 
Q 2938 -534 2700 -91 
z
M 2625 244 
Q 3391 244 3781 770 
Q 4172 1297 4172 2328 
Q 4172 3363 3781 3889 
Q 3391 4416 2625 4416 
Q 1856 4416 1465 3889 
Q 1075 3363 1075 2328 
Q 1075 1297 1465 770 
Q 1856 244 2625 244 
z
" transform="scale(0.015625)"/>
      <path id="DejaVuSerif-29" d="M 453 -997 
L 453 -691 
Q 934 -359 1145 242 
Q 1356 844 1356 1931 
Q 1356 3022 1145 3623 
Q 934 4225 453 4556 
L 453 4863 
Q 1216 4522 1603 3783 
Q 1991 3044 1991 1931 
Q 1991 822 1603 83 
Q 1216 -656 453 -997 
z
" transform="scale(0.015625)"/>
     </defs>
     <use xlink:href="#DejaVuSerif-28"/>
     <use xlink:href="#DejaVuSerif-51" transform="translate(39.013672 0)"/>
     <use xlink:href="#DejaVuSerif-30" transform="translate(120.996094 0)"/>
     <use xlink:href="#DejaVuSerif-30" transform="translate(184.619141 0)"/>
     <use xlink:href="#DejaVuSerif-29" transform="translate(248.242188 0)"/>
    </g>
   </g>
   <g id="patch_8">
    <path d="M 63.165937 128.737969 
L 96.578437 128.737969 
L 96.578437 117.878906 
L 63.165937 117.878906 
z
" clip-path="url(#p7a45490121)" style="fill: #ffffff; stroke: #000000; stroke-width: 0.5; stroke-linejoin: miter"/>
   </g>
   <g id="patch_9">
    <path d="M 63.165937 158.809219 
L 96.578437 158.809219 
L 96.578437 147.950156 
L 63.165937 147.950156 
z
" clip-path="url(#p7a45490121)" style="fill: #ffffff; stroke: #000000; stroke-width: 0.5; stroke-linejoin: miter"/>
   </g>
   <g id="patch_10">
    <path d="M 63.165937 188.880469 
L 96.578437 188.880469 
L 96.578437 178.021406 
L 63.165937 178.021406 
z
" clip-path="url(#p7a45490121)" style="fill: #ffffff; stroke: #000000; stroke-width: 0.5; stroke-linejoin: miter"/>
   </g>
   <g id="patch_11">
    <path d="M 63.165937 262.387969 
L 96.578437 262.387969 
L 96.578437 251.528906 
L 63.165937 251.528906 
z
" clip-path="url(#p7a45490121)" style="fill: #ffffff; stroke: #000000; stroke-width: 0.5; stroke-linejoin: miter"/>
   </g>
   <g id="patch_12">
    <path d="M 63.165937 249.022969 
L 96.578437 249.022969 
L 96.578437 238.163906 
L 63.165937 238.163906 
z
" clip-path="url(#p7a45490121)" style="fill: #ffffff; stroke: #000000; stroke-width: 0.5; stroke-linejoin: miter"/>
   </g>
   <g id="text_8">
    <!-- RS00 in -->
    <g transform="translate(110.659297 71.107895) scale(0.055 -0.055)">
     <defs>
      <path id="DejaVuSerif-20" transform="scale(0.015625)"/>
      <path id="DejaVuSerif-6e" d="M 263 0 
L 263 331 
L 781 331 
L 781 2988 
L 231 2988 
L 231 3322 
L 1356 3322 
L 1356 2731 
Q 1516 3069 1770 3241 
Q 2025 3413 2363 3413 
Q 2913 3413 3172 3097 
Q 3431 2781 3431 2113 
L 3431 331 
L 3944 331 
L 3944 0 
L 2356 0 
L 2356 331 
L 2853 331 
L 2853 1931 
Q 2853 2541 2703 2767 
Q 2553 2994 2175 2994 
Q 1775 2994 1565 2701 
Q 1356 2409 1356 1850 
L 1356 331 
L 1856 331 
L 1856 0 
L 263 0 
z
" transform="scale(0.015625)"/>
     </defs>
     <use xlink:href="#DejaVuSerif-52"/>
     <use xlink:href="#DejaVuSerif-53" transform="translate(75.292969 0)"/>
     <use xlink:href="#DejaVuSerif-30" transform="translate(143.798828 0)"/>
     <use xlink:href="#DejaVuSerif-30" transform="translate(207.421875 0)"/>
     <use xlink:href="#DejaVuSerif-20" transform="translate(271.044922 0)"/>
     <use xlink:href="#DejaVuSerif-69" transform="translate(302.832031 0)"/>
     <use xlink:href="#DejaVuSerif-6e" transform="translate(334.814453 0)"/>
    </g>
    <!-- (Q00..Q03) -->
    <g transform="translate(106.236094 77.057734) scale(0.055 -0.055)">
     <defs>
      <path id="DejaVuSerif-2e" d="M 603 325 
Q 603 500 722 622 
Q 841 744 1019 744 
Q 1191 744 1312 622 
Q 1434 500 1434 325 
Q 1434 153 1312 31 
Q 1191 -91 1019 -91 
Q 841 -91 722 29 
Q 603 150 603 325 
z
" transform="scale(0.015625)"/>
      <path id="DejaVuSerif-33" d="M 622 4469 
Q 988 4606 1323 4678 
Q 1659 4750 1953 4750 
Q 2638 4750 3022 4454 
Q 3406 4159 3406 3634 
Q 3406 3213 3140 2930 
Q 2875 2647 2388 2547 
Q 2963 2466 3280 2130 
Q 3597 1794 3597 1259 
Q 3597 606 3158 257 
Q 2719 -91 1894 -91 
Q 1528 -91 1179 -12 
Q 831 66 488 225 
L 488 1131 
L 838 1131 
Q 869 681 1141 450 
Q 1413 219 1906 219 
Q 2384 219 2661 495 
Q 2938 772 2938 1253 
Q 2938 1803 2653 2086 
Q 2369 2369 1819 2369 
L 1522 2369 
L 1522 2688 
L 1678 2688 
Q 2225 2688 2498 2914 
Q 2772 3141 2772 3597 
Q 2772 4006 2547 4223 
Q 2322 4441 1900 4441 
Q 1478 4441 1245 4241 
Q 1013 4041 972 3647 
L 622 3647 
L 622 4469 
z
" transform="scale(0.015625)"/>
     </defs>
     <use xlink:href="#DejaVuSerif-28"/>
     <use xlink:href="#DejaVuSerif-51" transform="translate(39.013672 0)"/>
     <use xlink:href="#DejaVuSerif-30" transform="translate(120.996094 0)"/>
     <use xlink:href="#DejaVuSerif-30" transform="translate(184.619141 0)"/>
     <use xlink:href="#DejaVuSerif-2e" transform="translate(248.242188 0)"/>
     <use xlink:href="#DejaVuSerif-2e" transform="translate(280.029297 0)"/>
     <use xlink:href="#DejaVuSerif-51" transform="translate(311.816406 0)"/>
     <use xlink:href="#DejaVuSerif-30" transform="translate(393.798828 0)"/>
     <use xlink:href="#DejaVuSerif-33" transform="translate(457.421875 0)"/>
     <use xlink:href="#DejaVuSerif-29" transform="translate(521.044922 0)"/>
    </g>
   </g>
   <g id="patch_13">
    <path d="M 104.931563 128.737969 
L 138.344063 128.737969 
L 138.344063 117.878906 
L 104.931563 117.878906 
z
" clip-path="url(#p7a45490121)" style="fill: #ffffff; stroke: #000000; stroke-width: 0.5; stroke-linejoin: miter"/>
   </g>
   <g id="patch_14">
    <path d="M 104.931563 158.809219 
L 138.344063 158.809219 
L 138.344063 147.950156 
L 104.931563 147.950156 
z
" clip-path="url(#p7a45490121)" style="fill: #ffffff; stroke: #000000; stroke-width: 0.5; stroke-linejoin: miter"/>
   </g>
   <g id="text_9">
    <!-- RR00 out -->
    <g transform="translate(150.356836 71.107895) scale(0.055 -0.055)">
     <defs>
      <path id="DejaVuSerif-6f" d="M 1925 219 
Q 2388 219 2623 584 
Q 2859 950 2859 1663 
Q 2859 2375 2623 2739 
Q 2388 3103 1925 3103 
Q 1463 3103 1227 2739 
Q 991 2375 991 1663 
Q 991 950 1228 584 
Q 1466 219 1925 219 
z
M 1925 -91 
Q 1200 -91 759 389 
Q 319 869 319 1663 
Q 319 2456 758 2934 
Q 1197 3413 1925 3413 
Q 2653 3413 3092 2934 
Q 3531 2456 3531 1663 
Q 3531 869 3092 389 
Q 2653 -91 1925 -91 
z
" transform="scale(0.015625)"/>
      <path id="DejaVuSerif-75" d="M 2266 3322 
L 3341 3322 
L 3341 331 
L 3884 331 
L 3884 0 
L 2766 0 
L 2766 588 
Q 2606 256 2353 82 
Q 2100 -91 1766 -91 
Q 1213 -91 952 223 
Q 691 538 691 1209 
L 691 2988 
L 172 2988 
L 172 3322 
L 1269 3322 
L 1269 1388 
Q 1269 781 1417 556 
Q 1566 331 1947 331 
Q 2347 331 2556 625 
Q 2766 919 2766 1478 
L 2766 2988 
L 2266 2988 
L 2266 3322 
z
" transform="scale(0.015625)"/>
     </defs>
     <use xlink:href="#DejaVuSerif-52"/>
     <use xlink:href="#DejaVuSerif-52" transform="translate(75.292969 0)"/>
     <use xlink:href="#DejaVuSerif-30" transform="translate(150.585938 0)"/>
     <use xlink:href="#DejaVuSerif-30" transform="translate(214.208984 0)"/>
     <use xlink:href="#DejaVuSerif-20" transform="translate(277.832031 0)"/>
     <use xlink:href="#DejaVuSerif-6f" transform="translate(309.619141 0)"/>
     <use xlink:href="#DejaVuSerif-75" transform="translate(369.824219 0)"/>
     <use xlink:href="#DejaVuSerif-74" transform="translate(434.228516 0)"/>
    </g>
    <!-- (Q00..Q03) -->
    <g transform="translate(148.001719 77.057734) scale(0.055 -0.055)">
     <use xlink:href="#DejaVuSerif-28"/>
     <use xlink:href="#DejaVuSerif-51" transform="translate(39.013672 0)"/>
     <use xlink:href="#DejaVuSerif-30" transform="translate(120.996094 0)"/>
     <use xlink:href="#DejaVuSerif-30" transform="translate(184.619141 0)"/>
     <use xlink:href="#DejaVuSerif-2e" transform="translate(248.242188 0)"/>
     <use xlink:href="#DejaVuSerif-2e" transform="translate(280.029297 0)"/>
     <use xlink:href="#DejaVuSerif-51" transform="translate(311.816406 0)"/>
     <use xlink:href="#DejaVuSerif-30" transform="translate(393.798828 0)"/>
     <use xlink:href="#DejaVuSerif-33" transform="translate(457.421875 0)"/>
     <use xlink:href="#DejaVuSerif-29" transform="translate(521.044922 0)"/>
    </g>
   </g>
   <g id="patch_15">
    <path d="M 146.697188 98.666719 
L 180.109688 98.666719 
L 180.109688 87.807656 
L 146.697188 87.807656 
z
" clip-path="url(#p7a45490121)" style="fill: #ffffff; stroke: #000000; stroke-width: 0.5; stroke-linejoin: miter"/>
   </g>
   <g id="patch_16">
    <path d="M 146.697188 128.737969 
L 180.109688 128.737969 
L 180.109688 117.878906 
L 146.697188 117.878906 
z
" clip-path="url(#p7a45490121)" style="fill: #ffffff; stroke: #000000; stroke-width: 0.5; stroke-linejoin: miter"/>
   </g>
   <g id="patch_17">
    <path d="M 146.697188 218.951719 
L 180.109688 218.951719 
L 180.109688 208.092656 
L 146.697188 208.092656 
z
" clip-path="url(#p7a45490121)" style="fill: #ffffff; stroke: #000000; stroke-width: 0.5; stroke-linejoin: miter"/>
   </g>
   <g id="patch_18">
    <path d="M 53.142187 295.382812 
L 190.133438 295.382812 
L 190.133438 278.676562 
L 53.142187 278.676562 
z
" clip-path="url(#p7a45490121)" style="fill: #ffffff; stroke: #000000; stroke-width: 0.5; stroke-linejoin: miter"/>
   </g>
   <g id="text_10">
    <!-- 10 dB -->
    <g transform="translate(71.717578 124.826094) scale(0.055 -0.055)">
     <defs>
      <path id="DejaVuSerif-31" d="M 909 0 
L 909 331 
L 1722 331 
L 1722 4213 
L 781 3603 
L 781 4013 
L 1919 4750 
L 2350 4750 
L 2350 331 
L 3163 331 
L 3163 0 
L 909 0 
z
" transform="scale(0.015625)"/>
      <path id="DejaVuSerif-64" d="M 3359 331 
L 3909 331 
L 3909 0 
L 2784 0 
L 2784 519 
Q 2616 206 2355 57 
Q 2094 -91 1709 -91 
Q 1097 -91 708 395 
Q 319 881 319 1663 
Q 319 2444 706 2928 
Q 1094 3413 1709 3413 
Q 2094 3413 2355 3264 
Q 2616 3116 2784 2803 
L 2784 4531 
L 2241 4531 
L 2241 4863 
L 3359 4863 
L 3359 331 
z
M 2784 1497 
L 2784 1825 
Q 2784 2422 2554 2737 
Q 2325 3053 1888 3053 
Q 1444 3053 1217 2703 
Q 991 2353 991 1663 
Q 991 975 1217 622 
Q 1444 269 1888 269 
Q 2325 269 2554 583 
Q 2784 897 2784 1497 
z
" transform="scale(0.015625)"/>
      <path id="DejaVuSerif-42" d="M 1581 331 
L 2516 331 
Q 3078 331 3337 575 
Q 3597 819 3597 1350 
Q 3597 1878 3339 2120 
Q 3081 2363 2516 2363 
L 1581 2363 
L 1581 331 
z
M 1581 2694 
L 2375 2694 
Q 2888 2694 3123 2891 
Q 3359 3088 3359 3513 
Q 3359 3941 3123 4136 
Q 2888 4331 2375 4331 
L 1581 4331 
L 1581 2694 
z
M 353 0 
L 353 331 
L 947 331 
L 947 4331 
L 353 4331 
L 353 4666 
L 2656 4666 
Q 3363 4666 3720 4377 
Q 4078 4088 4078 3513 
Q 4078 3097 3829 2850 
Q 3581 2603 3103 2547 
Q 3697 2472 4005 2167 
Q 4313 1863 4313 1350 
Q 4313 656 3875 328 
Q 3438 0 2509 0 
L 353 0 
z
" transform="scale(0.015625)"/>
     </defs>
     <use xlink:href="#DejaVuSerif-31"/>
     <use xlink:href="#DejaVuSerif-30" transform="translate(63.623047 0)"/>
     <use xlink:href="#DejaVuSerif-20" transform="translate(127.246094 0)"/>
     <use xlink:href="#DejaVuSerif-64" transform="translate(159.033203 0)"/>
     <use xlink:href="#DejaVuSerif-42" transform="translate(223.046875 0)"/>
    </g>
   </g>
   <g id="text_11">
    <!-- 20 dB -->
    <g transform="translate(71.717578 154.897344) scale(0.055 -0.055)">
     <defs>
      <path id="DejaVuSerif-32" d="M 819 3553 
L 469 3553 
L 469 4384 
Q 803 4563 1142 4656 
Q 1481 4750 1806 4750 
Q 2534 4750 2956 4397 
Q 3378 4044 3378 3438 
Q 3378 2753 2422 1800 
Q 2347 1728 2309 1691 
L 1131 513 
L 3078 513 
L 3078 1088 
L 3444 1088 
L 3444 0 
L 434 0 
L 434 341 
L 1850 1753 
Q 2319 2222 2519 2614 
Q 2719 3006 2719 3438 
Q 2719 3909 2473 4175 
Q 2228 4441 1797 4441 
Q 1350 4441 1106 4219 
Q 863 3997 819 3553 
z
" transform="scale(0.015625)"/>
     </defs>
     <use xlink:href="#DejaVuSerif-32"/>
     <use xlink:href="#DejaVuSerif-30" transform="translate(63.623047 0)"/>
     <use xlink:href="#DejaVuSerif-20" transform="translate(127.246094 0)"/>
     <use xlink:href="#DejaVuSerif-64" transform="translate(159.033203 0)"/>
     <use xlink:href="#DejaVuSerif-42" transform="translate(223.046875 0)"/>
    </g>
   </g>
   <g id="text_12">
    <!-- Lowpa -->
    <g transform="translate(70.636484 184.968594) scale(0.055 -0.055)">
     <defs>
      <path id="DejaVuSerif-4c" d="M 353 0 
L 353 331 
L 947 331 
L 947 4331 
L 353 4331 
L 353 4666 
L 2175 4666 
L 2175 4331 
L 1581 4331 
L 1581 384 
L 3713 384 
L 3713 1166 
L 4097 1166 
L 4097 0 
L 353 0 
z
" transform="scale(0.015625)"/>
      <path id="DejaVuSerif-77" d="M 3072 3322 
L 3922 728 
L 4672 2988 
L 4191 2988 
L 4191 3322 
L 5394 3322 
L 5394 2988 
L 5025 2988 
L 4038 0 
L 3559 0 
L 2741 2484 
L 1919 0 
L 1459 0 
L 475 2988 
L 103 2988 
L 103 3322 
L 1606 3322 
L 1606 2988 
L 1069 2988 
L 1813 728 
L 2669 3322 
L 3072 3322 
z
" transform="scale(0.015625)"/>
      <path id="DejaVuSerif-70" d="M 1313 1825 
L 1313 1497 
Q 1313 897 1542 583 
Q 1772 269 2209 269 
Q 2650 269 2876 622 
Q 3103 975 3103 1663 
Q 3103 2353 2876 2703 
Q 2650 3053 2209 3053 
Q 1772 3053 1542 2737 
Q 1313 2422 1313 1825 
z
M 738 2988 
L 184 2988 
L 184 3322 
L 1313 3322 
L 1313 2803 
Q 1481 3116 1742 3264 
Q 2003 3413 2388 3413 
Q 3000 3413 3387 2928 
Q 3775 2444 3775 1663 
Q 3775 881 3387 395 
Q 3000 -91 2388 -91 
Q 2003 -91 1742 57 
Q 1481 206 1313 519 
L 1313 -997 
L 1856 -997 
L 1856 -1331 
L 184 -1331 
L 184 -997 
L 738 -997 
L 738 2988 
z
" transform="scale(0.015625)"/>
      <path id="DejaVuSerif-61" d="M 2547 1044 
L 2547 1747 
L 1806 1747 
Q 1378 1747 1168 1562 
Q 959 1378 959 997 
Q 959 650 1171 447 
Q 1384 244 1747 244 
Q 2106 244 2326 466 
Q 2547 688 2547 1044 
z
M 3122 2075 
L 3122 331 
L 3634 331 
L 3634 0 
L 2547 0 
L 2547 359 
Q 2356 128 2106 18 
Q 1856 -91 1522 -91 
Q 969 -91 644 203 
Q 319 497 319 997 
Q 319 1513 691 1797 
Q 1063 2081 1741 2081 
L 2547 2081 
L 2547 2309 
Q 2547 2688 2317 2895 
Q 2088 3103 1672 3103 
Q 1328 3103 1125 2947 
Q 922 2791 872 2484 
L 575 2484 
L 575 3156 
Q 875 3284 1158 3348 
Q 1441 3413 1709 3413 
Q 2400 3413 2761 3070 
Q 3122 2728 3122 2075 
z
" transform="scale(0.015625)"/>
     </defs>
     <use xlink:href="#DejaVuSerif-4c"/>
     <use xlink:href="#DejaVuSerif-6f" transform="translate(66.40625 0)"/>
     <use xlink:href="#DejaVuSerif-77" transform="translate(126.611328 0)"/>
     <use xlink:href="#DejaVuSerif-70" transform="translate(212.207031 0)"/>
     <use xlink:href="#DejaVuSerif-61" transform="translate(276.220703 0)"/>
    </g>
   </g>
   <g id="text_13">
    <!-- 20 dB -->
    <g transform="translate(71.717578 258.476094) scale(0.055 -0.055)">
     <use xlink:href="#DejaVuSerif-32"/>
     <use xlink:href="#DejaVuSerif-30" transform="translate(63.623047 0)"/>
     <use xlink:href="#DejaVuSerif-20" transform="translate(127.246094 0)"/>
     <use xlink:href="#DejaVuSerif-64" transform="translate(159.033203 0)"/>
     <use xlink:href="#DejaVuSerif-42" transform="translate(223.046875 0)"/>
    </g>
   </g>
   <g id="text_14">
    <!-- Ecco. -->
    <g transform="translate(72.303242 245.111094) scale(0.055 -0.055)">
     <defs>
      <path id="DejaVuSerif-45" d="M 353 0 
L 353 331 
L 947 331 
L 947 4331 
L 353 4331 
L 353 4666 
L 4109 4666 
L 4109 3628 
L 3725 3628 
L 3725 4281 
L 1581 4281 
L 1581 2719 
L 3109 2719 
L 3109 3303 
L 3494 3303 
L 3494 1753 
L 3109 1753 
L 3109 2338 
L 1581 2338 
L 1581 384 
L 3775 384 
L 3775 1038 
L 4159 1038 
L 4159 0 
L 353 0 
z
" transform="scale(0.015625)"/>
      <path id="DejaVuSerif-63" d="M 3291 997 
Q 3169 466 2822 187 
Q 2475 -91 1925 -91 
Q 1200 -91 759 389 
Q 319 869 319 1663 
Q 319 2459 759 2936 
Q 1200 3413 1925 3413 
Q 2241 3413 2553 3339 
Q 2866 3266 3181 3116 
L 3181 2266 
L 2847 2266 
Q 2781 2703 2561 2903 
Q 2341 3103 1931 3103 
Q 1466 3103 1228 2742 
Q 991 2381 991 1663 
Q 991 944 1227 581 
Q 1463 219 1931 219 
Q 2303 219 2525 412 
Q 2747 606 2828 997 
L 3291 997 
z
" transform="scale(0.015625)"/>
     </defs>
     <use xlink:href="#DejaVuSerif-45"/>
     <use xlink:href="#DejaVuSerif-63" transform="translate(72.998047 0)"/>
     <use xlink:href="#DejaVuSerif-63" transform="translate(129.003906 0)"/>
     <use xlink:href="#DejaVuSerif-6f" transform="translate(185.009766 0)"/>
     <use xlink:href="#DejaVuSerif-2e" transform="translate(243.464844 0)"/>
    </g>
   </g>
   <g id="text_15">
    <!-- 10 dB -->
    <g transform="translate(113.483203 124.826094) scale(0.055 -0.055)">
     <use xlink:href="#DejaVuSerif-31"/>
     <use xlink:href="#DejaVuSerif-30" transform="translate(63.623047 0)"/>
     <use xlink:href="#DejaVuSerif-20" transform="translate(127.246094 0)"/>
     <use xlink:href="#DejaVuSerif-64" transform="translate(159.033203 0)"/>
     <use xlink:href="#DejaVuSerif-42" transform="translate(223.046875 0)"/>
    </g>
   </g>
   <g id="text_16">
    <!-- 10 dB -->
    <g transform="translate(113.483203 154.897344) scale(0.055 -0.055)">
     <use xlink:href="#DejaVuSerif-31"/>
     <use xlink:href="#DejaVuSerif-30" transform="translate(63.623047 0)"/>
     <use xlink:href="#DejaVuSerif-20" transform="translate(127.246094 0)"/>
     <use xlink:href="#DejaVuSerif-64" transform="translate(159.033203 0)"/>
     <use xlink:href="#DejaVuSerif-42" transform="translate(223.046875 0)"/>
    </g>
   </g>
   <g id="text_17">
    <!-- +20 dB -->
    <g transform="translate(152.944414 94.754844) scale(0.055 -0.055)">
     <defs>
      <path id="DejaVuSerif-2b" d="M 2931 4013 
L 2931 2259 
L 4684 2259 
L 4684 1753 
L 2931 1753 
L 2931 0 
L 2431 0 
L 2431 1753 
L 678 1753 
L 678 2259 
L 2431 2259 
L 2431 4013 
L 2931 4013 
z
" transform="scale(0.015625)"/>
     </defs>
     <use xlink:href="#DejaVuSerif-2b"/>
     <use xlink:href="#DejaVuSerif-32" transform="translate(83.789062 0)"/>
     <use xlink:href="#DejaVuSerif-30" transform="translate(147.412109 0)"/>
     <use xlink:href="#DejaVuSerif-20" transform="translate(211.035156 0)"/>
     <use xlink:href="#DejaVuSerif-64" transform="translate(242.822266 0)"/>
     <use xlink:href="#DejaVuSerif-42" transform="translate(306.835938 0)"/>
    </g>
   </g>
   <g id="text_18">
    <!-- +40 dB -->
    <g transform="translate(152.944414 124.826094) scale(0.055 -0.055)">
     <use xlink:href="#DejaVuSerif-2b"/>
     <use xlink:href="#DejaVuSerif-34" transform="translate(83.789062 0)"/>
     <use xlink:href="#DejaVuSerif-30" transform="translate(147.412109 0)"/>
     <use xlink:href="#DejaVuSerif-20" transform="translate(211.035156 0)"/>
     <use xlink:href="#DejaVuSerif-64" transform="translate(242.822266 0)"/>
     <use xlink:href="#DejaVuSerif-42" transform="translate(306.835938 0)"/>
    </g>
   </g>
   <g id="text_19">
    <!-- ISO -->
    <g transform="translate(158.178867 215.039844) scale(0.055 -0.055)">
     <defs>
      <path id="DejaVuSerif-49" d="M 1581 331 
L 2175 331 
L 2175 0 
L 353 0 
L 353 331 
L 947 331 
L 947 4331 
L 353 4331 
L 353 4666 
L 2175 4666 
L 2175 4331 
L 1581 4331 
L 1581 331 
z
" transform="scale(0.015625)"/>
      <path id="DejaVuSerif-4f" d="M 2625 244 
Q 3391 244 3781 770 
Q 4172 1297 4172 2328 
Q 4172 3363 3781 3889 
Q 3391 4416 2625 4416 
Q 1856 4416 1465 3889 
Q 1075 3363 1075 2328 
Q 1075 1297 1465 770 
Q 1856 244 2625 244 
z
M 2625 -91 
Q 2150 -91 1751 65 
Q 1353 222 1050 525 
Q 700 875 529 1319 
Q 359 1763 359 2328 
Q 359 2894 529 3339 
Q 700 3784 1050 4134 
Q 1356 4441 1750 4595 
Q 2144 4750 2625 4750 
Q 3641 4750 4266 4084 
Q 4891 3419 4891 2328 
Q 4891 1769 4719 1320 
Q 4547 872 4197 525 
Q 3891 219 3497 64 
Q 3103 -91 2625 -91 
z
" transform="scale(0.015625)"/>
     </defs>
     <use xlink:href="#DejaVuSerif-49"/>
     <use xlink:href="#DejaVuSerif-53" transform="translate(39.501953 0)"/>
     <use xlink:href="#DejaVuSerif-4f" transform="translate(108.007812 0)"/>
    </g>
   </g>
   <g id="text_20">
    <!-- DUT -->
    <g transform="translate(112.945781 288.96125) scale(0.07 -0.07)">
     <defs>
      <path id="DejaVuSerif-Bold-44" d="M 2100 378 
L 2534 378 
Q 3266 378 3605 847 
Q 3944 1316 3944 2338 
Q 3944 3353 3606 3820 
Q 3269 4288 2534 4288 
L 2100 4288 
L 2100 378 
z
M 300 0 
L 300 378 
L 897 378 
L 897 4288 
L 300 4288 
L 300 4666 
L 2694 4666 
Q 3950 4666 4615 4066 
Q 5281 3466 5281 2338 
Q 5281 1203 4614 601 
Q 3947 0 2694 0 
L 300 0 
z
" transform="scale(0.015625)"/>
      <path id="DejaVuSerif-Bold-55" d="M 813 4288 
L 219 4288 
L 219 4666 
L 2619 4666 
L 2619 4288 
L 2022 4288 
L 2022 1953 
Q 2022 1081 2294 732 
Q 2566 384 3225 384 
Q 3869 384 4139 736 
Q 4409 1088 4409 1953 
L 4409 4288 
L 3816 4288 
L 3816 4666 
L 5441 4666 
L 5441 4288 
L 4844 4288 
L 4844 1888 
Q 4844 819 4381 364 
Q 3919 -91 2828 -91 
Q 1744 -91 1278 368 
Q 813 828 813 1894 
L 813 4288 
z
" transform="scale(0.015625)"/>
      <path id="DejaVuSerif-Bold-54" d="M 1159 0 
L 1159 378 
L 1778 378 
L 1778 4238 
L 500 4238 
L 500 3500 
L 72 3500 
L 72 4666 
L 4697 4666 
L 4697 3500 
L 4275 3500 
L 4275 4238 
L 2988 4238 
L 2988 378 
L 3609 378 
L 3609 0 
L 1159 0 
z
" transform="scale(0.015625)"/>
     </defs>
     <use xlink:href="#DejaVuSerif-Bold-44"/>
     <use xlink:href="#DejaVuSerif-Bold-55" transform="translate(86.71875 0)"/>
     <use xlink:href="#DejaVuSerif-Bold-54" transform="translate(173.925781 0)"/>
    </g>
   </g>
   <g id="patch_19">
    <path d="M 79.872187 103.260937 
Q 79.872187 108.272812 79.872187 112.39026 
" style="fill: none; stroke: #000000; stroke-width: 0.8; stroke-linecap: round"/>
    <path d="M 81.872187 108.39026 
L 79.872187 112.39026 
L 77.872187 108.39026 
" style="fill: none; stroke: #000000; stroke-width: 0.8; stroke-linecap: round"/>
   </g>
   <g id="patch_20">
    <path d="M 121.637813 103.260937 
Q 121.637813 108.272812 121.637813 112.39026 
" style="fill: none; stroke: #000000; stroke-width: 0.8; stroke-linecap: round"/>
    <path d="M 123.637813 108.39026 
L 121.637813 112.39026 
L 119.637813 108.39026 
" style="fill: none; stroke: #000000; stroke-width: 0.8; stroke-linecap: round"/>
   </g>
   <g id="patch_21">
    <path d="M 163.403437 236.910937 
Q 163.403437 231.899062 163.403437 227.781615 
" style="fill: none; stroke: #000000; stroke-width: 0.8; stroke-linecap: round"/>
    <path d="M 161.403437 231.781615 
L 163.403437 227.781615 
L 165.403437 231.781615 
" style="fill: none; stroke: #000000; stroke-width: 0.8; stroke-linecap: round"/>
   </g>
   <g id="legend_1">
    <g id="patch_22">
     <path d="M 127.430859 35.818906 
L 191.56 35.818906 
L 191.56 9.95 
L 127.430859 9.95 
z
" style="fill: #ffffff; opacity: 0.9; stroke: #bbbbbb; stroke-linejoin: miter"/>
    </g>
    <g id="line2d_25">
     <path d="M 129.630859 14.404141 
L 135.130859 14.404141 
L 140.630859 14.404141 
" style="fill: none; stroke: #000000; stroke-width: 0.6; stroke-linecap: square"/>
    </g>
    <g id="text_21">
     <!-- Control -->
     <g transform="translate(145.030859 16.329141) scale(0.055 -0.055)">
      <defs>
       <path id="DejaVuSerif-72" d="M 3059 3328 
L 3059 2497 
L 2728 2497 
Q 2713 2744 2591 2866 
Q 2469 2988 2234 2988 
Q 1809 2988 1582 2694 
Q 1356 2400 1356 1850 
L 1356 331 
L 2022 331 
L 2022 0 
L 263 0 
L 263 331 
L 781 331 
L 781 2994 
L 231 2994 
L 231 3322 
L 1356 3322 
L 1356 2731 
Q 1525 3078 1790 3245 
Q 2056 3413 2438 3413 
Q 2578 3413 2733 3391 
Q 2888 3369 3059 3328 
z
" transform="scale(0.015625)"/>
      </defs>
      <use xlink:href="#DejaVuSerif-43"/>
      <use xlink:href="#DejaVuSerif-6f" transform="translate(76.513672 0)"/>
      <use xlink:href="#DejaVuSerif-6e" transform="translate(136.71875 0)"/>
      <use xlink:href="#DejaVuSerif-74" transform="translate(201.123047 0)"/>
      <use xlink:href="#DejaVuSerif-72" transform="translate(241.308594 0)"/>
      <use xlink:href="#DejaVuSerif-6f" transform="translate(289.111328 0)"/>
      <use xlink:href="#DejaVuSerif-6c" transform="translate(349.316406 0)"/>
     </g>
    </g>
    <g id="line2d_26">
     <path d="M 129.630859 22.477109 
L 135.130859 22.477109 
L 140.630859 22.477109 
" style="fill: none; stroke-dasharray: 2.22,0.96; stroke-dashoffset: 0; stroke: #000000; stroke-width: 0.6"/>
    </g>
    <g id="text_22">
     <!-- Readout Send -->
     <g transform="translate(145.030859 24.402109) scale(0.055 -0.055)">
      <defs>
       <path id="DejaVuSerif-65" d="M 3469 1600 
L 991 1600 
L 991 1575 
Q 991 903 1244 561 
Q 1497 219 1991 219 
Q 2369 219 2611 417 
Q 2853 616 2950 1006 
L 3413 1006 
Q 3275 459 2904 184 
Q 2534 -91 1931 -91 
Q 1203 -91 761 389 
Q 319 869 319 1663 
Q 319 2450 753 2931 
Q 1188 3413 1894 3413 
Q 2647 3413 3050 2948 
Q 3453 2484 3469 1600 
z
M 2791 1931 
Q 2772 2513 2545 2808 
Q 2319 3103 1894 3103 
Q 1497 3103 1269 2806 
Q 1041 2509 991 1931 
L 2791 1931 
z
" transform="scale(0.015625)"/>
      </defs>
      <use xlink:href="#DejaVuSerif-52"/>
      <use xlink:href="#DejaVuSerif-65" transform="translate(75.292969 0)"/>
      <use xlink:href="#DejaVuSerif-61" transform="translate(134.472656 0)"/>
      <use xlink:href="#DejaVuSerif-64" transform="translate(194.091797 0)"/>
      <use xlink:href="#DejaVuSerif-6f" transform="translate(258.105469 0)"/>
      <use xlink:href="#DejaVuSerif-75" transform="translate(318.310547 0)"/>
      <use xlink:href="#DejaVuSerif-74" transform="translate(382.714844 0)"/>
      <use xlink:href="#DejaVuSerif-20" transform="translate(422.900391 0)"/>
      <use xlink:href="#DejaVuSerif-53" transform="translate(454.6875 0)"/>
      <use xlink:href="#DejaVuSerif-65" transform="translate(523.193359 0)"/>
      <use xlink:href="#DejaVuSerif-6e" transform="translate(582.373047 0)"/>
      <use xlink:href="#DejaVuSerif-64" transform="translate(646.777344 0)"/>
     </g>
    </g>
    <g id="line2d_27">
     <path d="M 129.630859 30.550078 
L 135.130859 30.550078 
L 140.630859 30.550078 
" style="fill: none; stroke-dasharray: 3.84,0.96,0.6,0.96; stroke-dashoffset: 0; stroke: #000000; stroke-width: 0.6"/>
    </g>
    <g id="text_23">
     <!-- Readout Return -->
     <g transform="translate(145.030859 32.475078) scale(0.055 -0.055)">
      <use xlink:href="#DejaVuSerif-52"/>
      <use xlink:href="#DejaVuSerif-65" transform="translate(75.292969 0)"/>
      <use xlink:href="#DejaVuSerif-61" transform="translate(134.472656 0)"/>
      <use xlink:href="#DejaVuSerif-64" transform="translate(194.091797 0)"/>
      <use xlink:href="#DejaVuSerif-6f" transform="translate(258.105469 0)"/>
      <use xlink:href="#DejaVuSerif-75" transform="translate(318.310547 0)"/>
      <use xlink:href="#DejaVuSerif-74" transform="translate(382.714844 0)"/>
      <use xlink:href="#DejaVuSerif-20" transform="translate(422.900391 0)"/>
      <use xlink:href="#DejaVuSerif-52" transform="translate(454.6875 0)"/>
      <use xlink:href="#DejaVuSerif-65" transform="translate(529.980469 0)"/>
      <use xlink:href="#DejaVuSerif-74" transform="translate(589.160156 0)"/>
      <use xlink:href="#DejaVuSerif-75" transform="translate(629.345703 0)"/>
      <use xlink:href="#DejaVuSerif-72" transform="translate(693.75 0)"/>
      <use xlink:href="#DejaVuSerif-6e" transform="translate(741.552734 0)"/>
     </g>
    </g>
   </g>
   <g id="text_24">
    <g id="patch_23">
     <path d="M 8.870625 25.422359 
L 66.368828 25.422359 
Q 68.018828 25.422359 68.018828 23.772359 
L 68.018828 11.298359 
Q 68.018828 9.648359 66.368828 9.648359 
L 8.870625 9.648359 
Q 7.220625 9.648359 7.220625 11.298359 
L 7.220625 23.772359 
Q 7.220625 25.422359 8.870625 25.422359 
z
" style="fill: #ffffff; opacity: 0.95; stroke: #bbbbbb; stroke-width: 0.4; stroke-linejoin: miter"/>
    </g>
    <!-- your-cryo  /  cd001 -->
    <g style="fill: #333333" transform="translate(8.870625 15.555703) scale(0.055 -0.055)">
     <defs>
      <path id="DejaVuSerif-Bold-79" d="M 1997 -750 
Q 1847 -1116 1634 -1269 
Q 1422 -1422 1063 -1422 
Q 909 -1422 721 -1387 
Q 534 -1353 313 -1288 
L 313 -594 
L 666 -597 
Q 675 -838 779 -953 
Q 884 -1069 1094 -1069 
Q 1297 -1069 1422 -958 
Q 1547 -847 1672 -538 
L 1722 -422 
L 275 2944 
L -84 2944 
L -84 3322 
L 1831 3322 
L 1831 2944 
L 1434 2944 
L 2278 978 
L 3066 2944 
L 2625 2944 
L 2625 3322 
L 3872 3322 
L 3872 2944 
L 3469 2944 
L 1997 -750 
z
" transform="scale(0.015625)"/>
      <path id="DejaVuSerif-Bold-6f" d="M 2138 263 
Q 2488 263 2630 563 
Q 2772 863 2772 1663 
Q 2772 2463 2631 2761 
Q 2491 3059 2138 3059 
Q 1784 3059 1640 2757 
Q 1497 2456 1497 1663 
Q 1497 869 1640 566 
Q 1784 263 2138 263 
z
M 2138 -91 
Q 1259 -91 761 376 
Q 263 844 263 1663 
Q 263 2484 761 2948 
Q 1259 3413 2138 3413 
Q 3019 3413 3516 2948 
Q 4013 2484 4013 1663 
Q 4013 844 3514 376 
Q 3016 -91 2138 -91 
z
" transform="scale(0.015625)"/>
      <path id="DejaVuSerif-Bold-75" d="M 3963 3322 
L 3963 378 
L 4434 378 
L 4434 0 
L 2853 0 
L 2853 469 
Q 2656 172 2400 40 
Q 2144 -91 1753 -91 
Q 1194 -91 908 239 
Q 622 569 622 1209 
L 622 2944 
L 147 2944 
L 147 3322 
L 1728 3322 
L 1728 1381 
Q 1728 763 1831 595 
Q 1934 428 2209 428 
Q 2544 428 2698 675 
Q 2853 922 2853 1459 
L 2853 2944 
L 2450 2944 
L 2450 3322 
L 3963 3322 
z
" transform="scale(0.015625)"/>
      <path id="DejaVuSerif-Bold-72" d="M 3438 3359 
L 3438 2369 
L 3084 2369 
Q 3066 2634 2941 2764 
Q 2816 2894 2578 2894 
Q 2216 2894 2006 2575 
Q 1797 2256 1797 1691 
L 1797 378 
L 2400 378 
L 2400 0 
L 219 0 
L 219 378 
L 691 378 
L 691 2944 
L 184 2944 
L 184 3322 
L 1797 3322 
L 1797 2731 
Q 1959 3078 2226 3245 
Q 2494 3413 2881 3413 
Q 2978 3413 3117 3398 
Q 3256 3384 3438 3359 
z
" transform="scale(0.015625)"/>
      <path id="DejaVuSerif-Bold-2d" d="M 347 2138 
L 2309 2138 
L 2309 1294 
L 347 1294 
L 347 2138 
z
" transform="scale(0.015625)"/>
      <path id="DejaVuSerif-Bold-63" d="M 3609 1038 
Q 3491 469 3123 189 
Q 2756 -91 2125 -91 
Q 1238 -91 750 368 
Q 263 828 263 1663 
Q 263 2488 744 2950 
Q 1225 3413 2081 3413 
Q 2428 3413 2781 3347 
Q 3134 3281 3500 3150 
L 3500 2228 
L 3150 2228 
Q 3100 2650 2903 2854 
Q 2706 3059 2350 3059 
Q 1888 3059 1692 2746 
Q 1497 2434 1497 1663 
Q 1497 909 1687 586 
Q 1878 263 2309 263 
Q 2644 263 2845 463 
Q 3047 663 3091 1038 
L 3609 1038 
z
" transform="scale(0.015625)"/>
      <path id="DejaVuSerif-Bold-20" transform="scale(0.015625)"/>
      <path id="DejaVuSerif-Bold-2f" d="M 1644 4666 
L 2338 4666 
L 691 -594 
L 0 -594 
L 1644 4666 
z
" transform="scale(0.015625)"/>
      <path id="DejaVuSerif-Bold-64" d="M 2747 1497 
L 2747 1825 
Q 2747 2406 2597 2665 
Q 2447 2925 2119 2925 
Q 1775 2925 1636 2651 
Q 1497 2378 1497 1663 
Q 1497 947 1637 672 
Q 1778 397 2119 397 
Q 2447 397 2597 656 
Q 2747 916 2747 1497 
z
M 3853 378 
L 4325 378 
L 4325 0 
L 2747 0 
L 2747 422 
Q 2606 163 2367 36 
Q 2128 -91 1778 -91 
Q 1072 -91 667 378 
Q 263 847 263 1663 
Q 263 2481 667 2947 
Q 1072 3413 1778 3413 
Q 2128 3413 2367 3286 
Q 2606 3159 2747 2900 
L 2747 4488 
L 2272 4488 
L 2272 4863 
L 3853 4863 
L 3853 378 
z
" transform="scale(0.015625)"/>
      <path id="DejaVuSerif-Bold-30" d="M 2228 275 
Q 2603 275 2742 615 
Q 2881 956 2881 2328 
Q 2881 3691 2742 4037 
Q 2603 4384 2228 4384 
Q 1853 4384 1714 4043 
Q 1575 3703 1575 2328 
Q 1575 956 1714 615 
Q 1853 275 2228 275 
z
M 2228 -91 
Q 1294 -91 797 532 
Q 300 1156 300 2328 
Q 300 3500 797 4125 
Q 1294 4750 2228 4750 
Q 3159 4750 3656 4125 
Q 4153 3500 4153 2328 
Q 4153 1156 3656 532 
Q 3159 -91 2228 -91 
z
" transform="scale(0.015625)"/>
      <path id="DejaVuSerif-Bold-31" d="M 878 0 
L 878 378 
L 1753 378 
L 1753 4153 
L 781 3578 
L 781 4044 
L 1953 4750 
L 2938 4750 
L 2938 378 
L 3816 378 
L 3816 0 
L 878 0 
z
" transform="scale(0.015625)"/>
     </defs>
     <use xlink:href="#DejaVuSerif-Bold-79"/>
     <use xlink:href="#DejaVuSerif-Bold-6f" transform="translate(58.105469 0)"/>
     <use xlink:href="#DejaVuSerif-Bold-75" transform="translate(124.804688 0)"/>
     <use xlink:href="#DejaVuSerif-Bold-72" transform="translate(197.509766 0)"/>
     <use xlink:href="#DejaVuSerif-Bold-2d" transform="translate(250.195312 0)"/>
     <use xlink:href="#DejaVuSerif-Bold-63" transform="translate(291.699219 0)"/>
     <use xlink:href="#DejaVuSerif-Bold-72" transform="translate(352.587891 0)"/>
     <use xlink:href="#DejaVuSerif-Bold-79" transform="translate(405.273438 0)"/>
     <use xlink:href="#DejaVuSerif-Bold-6f" transform="translate(463.378906 0)"/>
     <use xlink:href="#DejaVuSerif-Bold-20" transform="translate(530.078125 0)"/>
     <use xlink:href="#DejaVuSerif-Bold-20" transform="translate(564.892578 0)"/>
     <use xlink:href="#DejaVuSerif-Bold-2f" transform="translate(599.707031 0)"/>
     <use xlink:href="#DejaVuSerif-Bold-20" transform="translate(636.230469 0)"/>
     <use xlink:href="#DejaVuSerif-Bold-20" transform="translate(671.044922 0)"/>
     <use xlink:href="#DejaVuSerif-Bold-63" transform="translate(705.859375 0)"/>
     <use xlink:href="#DejaVuSerif-Bold-64" transform="translate(766.748047 0)"/>
     <use xlink:href="#DejaVuSerif-Bold-30" transform="translate(836.669922 0)"/>
     <use xlink:href="#DejaVuSerif-Bold-30" transform="translate(906.25 0)"/>
     <use xlink:href="#DejaVuSerif-Bold-31" transform="translate(975.830078 0)"/>
    </g>
    <!-- 2026-03-09 -->
    <g style="fill: #333333" transform="translate(8.870625 22.628531) scale(0.055 -0.055)">
     <defs>
      <path id="DejaVuSerif-Bold-32" d="M 844 3513 
L 469 3513 
L 469 4519 
Q 850 4634 1223 4692 
Q 1597 4750 1978 4750 
Q 2869 4750 3367 4386 
Q 3866 4022 3866 3372 
Q 3866 2909 3591 2542 
Q 3316 2175 2541 1672 
L 1241 819 
L 3450 819 
L 3450 1369 
L 3878 1369 
L 3878 0 
L 428 0 
L 428 763 
L 1119 1241 
Q 2003 1850 2297 2278 
Q 2591 2706 2591 3278 
Q 2591 3819 2367 4101 
Q 2144 4384 1716 4384 
Q 1347 4384 1125 4161 
Q 903 3938 844 3513 
z
" transform="scale(0.015625)"/>
      <path id="DejaVuSerif-Bold-36" d="M 1575 2766 
Q 1778 2928 2029 3009 
Q 2281 3091 2578 3091 
Q 3294 3091 3701 2672 
Q 4109 2253 4109 1522 
Q 4109 750 3650 329 
Q 3191 -91 2344 -91 
Q 1388 -91 895 486 
Q 403 1063 403 2181 
Q 403 3453 950 4101 
Q 1497 4750 2572 4750 
Q 2853 4750 3175 4703 
Q 3497 4656 3866 4563 
L 3866 3738 
L 3488 3738 
Q 3409 4056 3192 4220 
Q 2975 4384 2631 4384 
Q 2075 4384 1826 4003 
Q 1578 3622 1575 2766 
z
M 2272 275 
Q 2594 275 2731 548 
Q 2869 822 2869 1497 
Q 2869 2172 2731 2445 
Q 2594 2719 2272 2719 
Q 1950 2719 1814 2445 
Q 1678 2172 1678 1497 
Q 1678 822 1814 548 
Q 1950 275 2272 275 
z
" transform="scale(0.015625)"/>
      <path id="DejaVuSerif-Bold-33" d="M 550 4531 
Q 963 4641 1350 4695 
Q 1738 4750 2106 4750 
Q 2950 4750 3401 4448 
Q 3853 4147 3853 3584 
Q 3853 3163 3593 2900 
Q 3334 2638 2834 2547 
Q 3444 2450 3744 2131 
Q 4044 1813 4044 1259 
Q 4044 606 3526 257 
Q 3009 -91 2028 -91 
Q 1659 -91 1267 -28 
Q 875 34 447 159 
L 447 1184 
L 825 1184 
Q 859 741 1103 508 
Q 1347 275 1778 275 
Q 2253 275 2512 539 
Q 2772 803 2772 1288 
Q 2772 1794 2501 2069 
Q 2231 2344 1734 2344 
L 1528 2344 
L 1528 2719 
L 1691 2719 
Q 2150 2719 2381 2931 
Q 2613 3144 2613 3566 
Q 2613 3963 2395 4173 
Q 2178 4384 1772 4384 
Q 1403 4384 1187 4182 
Q 972 3981 928 3597 
L 550 3597 
L 550 4531 
z
" transform="scale(0.015625)"/>
      <path id="DejaVuSerif-Bold-39" d="M 2181 4384 
Q 1859 4384 1723 4111 
Q 1588 3838 1588 3163 
Q 1588 2488 1723 2214 
Q 1859 1941 2181 1941 
Q 2503 1941 2640 2214 
Q 2778 2488 2778 3163 
Q 2778 3838 2640 4111 
Q 2503 4384 2181 4384 
z
M 2878 1900 
Q 2672 1734 2420 1651 
Q 2169 1569 1875 1569 
Q 1163 1569 755 1986 
Q 347 2403 347 3138 
Q 347 3913 803 4331 
Q 1259 4750 2106 4750 
Q 3063 4750 3556 4172 
Q 4050 3594 4050 2478 
Q 4050 1206 3503 557 
Q 2956 -91 1881 -91 
Q 1600 -91 1278 -44 
Q 956 3 588 97 
L 588 922 
L 966 922 
Q 1044 603 1261 439 
Q 1478 275 1825 275 
Q 2375 275 2625 658 
Q 2875 1041 2878 1900 
z
" transform="scale(0.015625)"/>
     </defs>
     <use xlink:href="#DejaVuSerif-Bold-32"/>
     <use xlink:href="#DejaVuSerif-Bold-30" transform="translate(69.580078 0)"/>
     <use xlink:href="#DejaVuSerif-Bold-32" transform="translate(139.160156 0)"/>
     <use xlink:href="#DejaVuSerif-Bold-36" transform="translate(208.740234 0)"/>
     <use xlink:href="#DejaVuSerif-Bold-2d" transform="translate(278.320312 0)"/>
     <use xlink:href="#DejaVuSerif-Bold-30" transform="translate(319.824219 0)"/>
     <use xlink:href="#DejaVuSerif-Bold-33" transform="translate(389.404297 0)"/>
     <use xlink:href="#DejaVuSerif-Bold-2d" transform="translate(458.984375 0)"/>
     <use xlink:href="#DejaVuSerif-Bold-30" transform="translate(500.488281 0)"/>
     <use xlink:href="#DejaVuSerif-Bold-39" transform="translate(570.068359 0)"/>
    </g>
   </g>
  </g>
 </g>
 <defs>
  <clipPath id="p7a45490121">
   <rect x="7.2" y="7.2" width="187.11" height="294.865312"/>
  </clipPath>
 </defs>
</svg>
